<svg viewBox="0 0 50 50" xml:space="preserve" xmlns="http://www.w3.org/2000/svg" enable-background="new 0 0 50 50"><path d="M49 20V6h-8V1h-2v5H11V1H9v5H1v43h48V20zM3 8h6v5h2V8h28v5h2V8h6v10H3V8zm0 39V20h44v27H3z" fill="#ffffff" class="fill-000000"></path><path d="M6 44h38V24H6v20zm2-6h4v4H8v-4zm28-2h-4v-4h4v4zm2-4h4v4h-4v-4zm-18 6h4v4h-4v-4zm-2 4h-4v-4h4v4zm6-6h-4v-4h4v4zm2-4h4v4h-4v-4zm0 6h4v4h-4v-4zm6 0h4v4h-4v-4zm0-8v-4h4v4h-4zm-2 0h-4v-4h4v4zm-6 0h-4v-4h4v4zm-6 0h-4v-4h4v4zm0 2v4h-4v-4h4zm-6 4H8v-4h4v4zm26 6v-4h4v4h-4zm4-12h-4v-4h4v4zm-30-4v4H8v-4h4z" fill="#ffffff" class="fill-000000"></path></svg>