<svg xmlns="http://www.w3.org/2000/svg" fill="none" viewBox="0 0 48 48" id="Business-Coaching-Whistle--Streamline-Freehand.svg" height="48" width="48"><desc>Business Coaching Whistle Streamline Icon: https://streamlinehq.com</desc><path fill="#ffffff" d="M25.832 26.8672c0.6314 -0.5554 1.3692 -0.9766 2.1682 -1.2384 0.7992 -0.2618 1.6432 -0.3586 2.4808 -0.2846 0.1488 0.0186 0.2988 -0.0226 0.4172 -0.1148 0.1184 -0.092 0.1954 -0.2274 0.214 -0.3762 0.0186 -0.1488 -0.0228 -0.2988 -0.1148 -0.4172s-0.2274 -0.1954 -0.3762 -0.214c-1.001 -0.1466 -2.0212 -0.089 -2.9992 0.1694 -0.978 0.2582 -1.8938 0.712 -2.6918 1.3336 -1.6782 1.2384 -2.8296 3.0622 -3.2262 5.1098 -0.3588 1.7876 -0.1558 3.6424 0.5812 5.3102 0.5846 1.1918 1.5812 2.1316 2.8054 2.6452 1.8506 0.779 3.9048 0.9336 5.8512 0.4408 1.9002 -0.4708 3.621 -1.4878 4.9496 -2.9256 0.7032 -0.7344 1.2378 -1.6132 1.5666 -2.5754 0.3288 -0.962 0.4438 -1.9842 0.337 -2.9954 -0.1116 -0.9904 -0.443 -1.9432 -0.97 -2.7892 -0.5268 -0.8458 -1.2362 -1.5634 -2.0758 -2.1002 -0.1426 -0.0868 -0.3128 -0.1164 -0.4762 -0.083 -0.1636 0.0334 -0.3084 0.1276 -0.4056 0.2634 -0.048 0.069 -0.0816 0.147 -0.0986 0.2296 -0.017 0.0824 -0.017 0.1674 -0.0002 0.2498 0.0168 0.0824 0.0504 0.1606 0.0984 0.2298 0.048 0.0692 0.1094 0.1278 0.1808 0.1724 0.6264 0.4456 1.146 1.0248 1.5212 1.6958 0.3752 0.6708 0.5968 1.4168 0.6486 2.1838 0.0518 0.767 -0.0676 1.5358 -0.3492 2.2512 -0.2816 0.7152 -0.7186 1.359 -1.2796 1.8846 -1.1474 1.0998 -2.5756 1.8624 -4.1278 2.2044 -1.5142 0.3466 -3.0992 0.2064 -4.5288 -0.4008 -0.476 -0.2022 -0.902 -0.5062 -1.2482 -0.8904 -0.3462 -0.3842 -0.604 -0.8396 -0.7558 -1.334 -0.3858 -1.1192 -0.5026 -2.3138 -0.3406 -3.4866 0.2182 -1.6098 1.0162 -3.0846 2.2444 -4.148Z" stroke-width="1"></path><path fill="#ffffff" d="M47.2734 34.3216c-0.3942 -0.5798 -0.943 -1.0374 -1.5842 -1.3208 -0.641 -0.2834 -1.3488 -0.3812 -2.0428 -0.2824 -0.2716 0.0388 -0.5396 0.0992 -0.8016 0.1804 0.334 -3.0464 -0.536 -6.1028 -2.4246 -8.5164 -1.9794 -2.2986 -4.561 -3.999 -7.4544 -4.90956 -4.133 -1.1393 -8.337 -2.00286 -12.5844 -2.58498 -2.75786 -0.5442 -5.54976 -0.89906 -8.3561 -1.06206 -2.78756 -0.19598 -5.5836 -0.2428 -8.37616 -0.14026 -0.0833 -0.00004 -0.16574 0.01666 -0.24246 0.04912 -0.0767 0.03246 -0.14608 0.08002 -0.20404 0.13984 -0.05796 0.05984 -0.10328 0.1307 -0.1333 0.2084 -0.03002 0.07768 -0.0441 0.16062 -0.0414 0.24388 0.00258 0.08422 0.02174 0.1671 0.05638 0.2439 0.03466 0.07682 0.0841 0.14606 0.1455 0.20374 0.06142 0.0577 0.1336 0.10272 0.21242 0.1325s0.16274 0.04372 0.24696 0.04106c2.78202 -0.04186 5.56434 0.05846 8.3361 0.30058 1.70328 0.14026 3.40658 0.36068 5.04976 0.64124 -0.24776 0.6479 -0.42904 1.3193 -0.54106 2.00386 -0.05594 0.43354 0.05906 0.87194 0.32062 1.22234 0.407 0.5026 0.94938 0.878 1.56302 1.0822 1.09604 0.3006 2.21556 0.5084 3.34656 0.6212 0.4426 0.0878 0.8916 0.1414 1.3424 0.1602 0.3428 -0.0226 0.6742 -0.133 0.962 -0.3206 0.425 -0.3216 0.757 -0.7504 0.9618 -1.2424 0.2462 -0.6516 0.4404 -1.3216 0.5812 -2.00386 2.3188 0.37504 4.599 0.95846 6.813 1.74326 2.5434 0.8256 4.8014 2.354 6.5126 4.4086 0.8398 1.1374 1.4292 2.4396 1.7296 3.8212 0.3004 1.3814 0.3052 2.8108 0.0138 4.1942 -0.4664 2.859 -2.0166 5.4284 -4.3284 7.174 -1.1734 0.8012 -2.495 1.36 -3.8874 1.6432 -1.411 0.3282 -2.8654 0.4296 -4.3084 0.3004 -1.7344 -0.1284 -3.4184 -0.6418 -4.9294 -1.5028 -1.515 -0.8276 -2.7812 -2.0452 -3.66716 -3.5268 -0.65744 -0.9966 -1.18282 -2.0744 -1.56302 -3.2062 -0.35372 -1.1054 -0.46982 -2.2732 -0.34064 -3.4266 0.0258 -0.1842 -0.01168 -0.3718 -0.10632 -0.532s-0.24086 -0.2834 -0.4147 -0.3498L1.444876 24.723c0 -0.4008 0.120232 -5.65092 0.120232 -5.65092 0.005522 -0.07436 -0.00438 -0.14904 -0.029086 -0.21938 -0.024706 -0.07034 -0.063684 -0.13482 -0.114486 -0.18938s-0.112332 -0.09804 -0.18073 -0.1277c-0.0684 -0.02966 -0.14219 -0.04488 -0.216744 -0.04466 -0.1454 -0.0001 -0.28516 0.05626 -0.389826 0.15718 -0.104666 0.10094 -0.166064 0.23854 -0.171256 0.38386l-0.3005808 4.3084c-0.0808538 0.5312 -0.1343608 1.0662 -0.16030948 1.603 -0.0114676 0.1566 0.02445168 0.3128 0.10308128 0.4486 0.0786296 0.1358 0.196327 0.2448 0.337769 0.3128l15.38972 6.0116c-0.08068 1.1744 0.04134 2.3538 0.36068 3.4868 0.38876 1.291 0.94812 2.5242 1.66322 3.667 1.01478 1.742 2.45604 3.197 4.18804 4.2282 1.7664 1.0276 3.7362 1.6568 5.7712 1.8436 1.6546 0.1556 3.3232 0.061 4.9496 -0.2806 1.668 -0.3698 3.2518 -1.0494 4.669 -2.0038 0.831 -0.6 1.579 -1.3076 2.2242 -2.104l0.2406 0.4008c0.2376 0.3232 0.537 0.596 0.881 0.8024 0.3442 0.2064 0.7258 0.3422 1.1228 0.3998 0.597 0.0622 1.2002 0.0216 1.7834 -0.1202 0.937 -0.2114 1.8096 -0.6444 2.545 -1.2624 0.777 -0.6652 1.3298 -1.554 1.583 -2.545 0.185 -0.6532 0.2324 -1.3378 0.1392 -2.0104 -0.0932 -0.6726 -0.3248 -1.3186 -0.6802 -1.897Zm-23.6456 -14.0272c-0.1604 0.2806 -0.2004 0.8216 -0.461 0.7414l-3.82738 -0.7614c-0.39114 -0.034 -0.77208 -0.1428 -1.12216 -0.32062 0 -1.22236 0.28054 -1.18228 0.20038 -1.88364 0.54104 0.12024 1.10214 0.20038 1.64316 0.30058 1.3026 0.30058 2.6852 0.54104 4.0078 0.80154 -0.125 0.40194 -0.2722 0.79664 -0.4408 1.18234v-0.0602Zm22.2628 17.4136c-0.1538 0.5918 -0.4736 1.1272 -0.9216 1.543 -0.4626 0.471 -1.0238 0.8338 -1.6432 1.062 -0.3086 0.1222 -0.6322 0.2032 -0.962 0.2406 -0.2728 0.022 -0.547 -0.0192 -0.8014 -0.1202 -0.1888 -0.0956 -0.3586 -0.2246 -0.501 -0.3808 -0.1772 -0.1864 -0.338 -0.3874 -0.481 -0.6012 0.9972 -1.5696 1.678 -3.319 2.0038 -5.15l0.1604 0c0.295 -0.0726 0.598 -0.1064 0.9018 -0.1002 0.4126 -0.0052 0.8186 0.1046 1.1724 0.3168 0.354 0.2124 0.6418 0.519 0.8314 0.8856 0.1906 0.3492 0.31 0.7326 0.3512 1.1282 0.0412 0.3954 0.0036 0.7954 -0.1108 1.1762Z" stroke-width="1"></path><path fill="#ffffff" d="M18.7383 7.46968c0.24046 0.14028 0.50096 0.24046 0.60116 0.32062 0.21232 0.1905 0.3595 0.4428 0.42082 0.7214 0.14228 0.4633 0.2363 0.9401 0.28052 1.42274 -0.0054 0.08424 0.0058 0.16874 0.0332 0.24862 0.0272 0.07988 0.07 0.15358 0.126 0.21688 0.0558 0.0633 0.1236 0.11496 0.1994 0.15198 0.0758 0.03704 0.1584 0.05874 0.2426 0.06384 0.1668 0.00552 0.3292 -0.05416 0.4526 -0.16642 0.1234 -0.11224 0.1984 -0.2682 0.2086 -0.43474 0.1814 -0.77442 0.2288 -1.57416 0.1404 -2.36458 -0.0882 -0.46564 -0.2952 -0.90056 -0.6012 -1.26242 -0.1804 -0.18036 -1.04204 -0.40078 -1.40274 -0.68132 0.0412 -0.13816 0.09486 -0.2723 0.1603 -0.40078 0.28054 -0.521 0.60124 -1.00194 0.82164 -1.42274 0.0872 -0.11976 0.1234 -0.26914 0.1008 -0.41554 -0.0224 -0.1464 -0.102 -0.27796 -0.221 -0.36598 -0.0584 -0.04584 -0.1254 -0.07924 -0.1972 -0.09808 -0.0716 -0.01886 -0.14646 -0.02276 -0.21974 -0.01148 -0.07328 0.01126 -0.14346 0.03748 -0.2062 0.07702 -0.06272 0.03952 -0.11666 0.09154 -0.15844 0.15278 -0.40078 0.38074 -0.9819 0.82158 -1.4428 1.28248 -0.2419 0.26774 -0.45048 0.5638 -0.6212 0.8817 -0.09064 0.26046 -0.09888 0.54252 -0.0236 0.80784 0.0753 0.2653 0.23046 0.501 0.44442 0.67502 0.2596 0.23732 0.5493 0.43946 0.86166 0.60116Z" stroke-width="1"></path><path fill="#ffffff" d="M26.6134 12.21884c1.1708 -0.4036 2.2878 -0.94868 3.3264 -1.62312 0.3252 -0.2271 0.5936 -0.52594 0.7848 -0.87342 0.1912 -0.34748 0.2998 -0.73428 0.3174 -1.13046 -0.038 -0.34318 -0.14 -0.67622 -0.3006 -0.98188l3.3264 -1.68326c0.1432 -0.0377 0.2658 -0.13048 0.3408 -0.2581 0.075 -0.12762 0.0966 -0.27974 0.06 -0.42322 -0.042 -0.1447 -0.1388 -0.2674 -0.2696 -0.34216 -0.1308 -0.07478 -0.2856 -0.0958 -0.4318 -0.0586l-3.707 0.7815c-0.3602 0.09374 -0.7148 0.20748 -1.0622 0.34066 -0.1484 0.07718 -0.2786 0.18496 -0.3822 0.31624 -0.1036 0.13126 -0.1782 0.283 -0.219 0.44522 -0.0696 0.28302 -0.0696 0.57866 0 0.86168 0.0794 0.2741 0.194 0.53678 0.3408 0.7815 0 0.12024 0.2004 0.22042 0.2204 0.34066 0.02 0.12024 0 0.22042 -0.1604 0.34066 -0.2152 0.25836 -0.457 0.49344 -0.7214 0.70134 -0.7414 0.5611 -1.563 1.02198 -2.0038 1.3426 -0.0742 0.03622 -0.1406 0.08688 -0.195 0.14902 -0.0544 0.06214 -0.0958 0.1345 -0.122 0.21288 -0.0262 0.07836 -0.0364 0.16116 -0.0302 0.24354 0.0064 0.08238 0.029 0.16266 0.0666 0.23618 0.0768 0.14126 0.204 0.2485 0.3562 0.30046 0.1522 0.05196 0.3182 0.04486 0.4654 -0.01992Z" stroke-width="1"></path></svg>