<svg viewBox="0 0 24 24" xmlns="http://www.w3.org/2000/svg"><path d="M8.89 6.53a3.63 3.63 0 0 0-2.6 1.1 3.58 3.58 0 0 0-4.19-.72 1 1 0 0 0-1-.9A1 1 0 0 0 0 7v10a1 1 0 1 0 2.08 0v-6.83a1.56 1.56 0 1 1 3.12 0V17a1 1 0 1 0 2.08 0v-6.83a1.56 1.56 0 1 1 3.12 0V17a1 1 0 1 0 2.08 0v-6.83a3.65 3.65 0 0 0-3.59-3.64ZM23.7 12.42a1 1 0 0 0 .25-.82c-.3-2.43-2.36-5-5.17-5a5.41 5.41 0 0 0-5.17 5V12.27A5.49 5.49 0 0 0 18.77 18a5.13 5.13 0 0 0 4.69-3.26 1 1 0 1 0-1.91-.82 3.09 3.09 0 0 1-2.78 2 3.33 3.33 0 0 1-3.08-3.14h7.23a1 1 0 0 0 .78-.36ZM16 10.69a3.13 3.13 0 0 1 2.82-2 3.3 3.3 0 0 1 2.75 2Z" fill="#ffffff" class="fill-000000"></path></svg>