<?xml version="1.0" standalone="no"?>
<!DOCTYPE svg PUBLIC "-//W3C//DTD SVG 20010904//EN"
 "http://www.w3.org/TR/2001/REC-SVG-20010904/DTD/svg10.dtd">
<svg version="1.0" xmlns="http://www.w3.org/2000/svg"
 width="300.000000pt" height="300.000000pt" viewBox="0 0 300.000000 300.000000"
 preserveAspectRatio="xMidYMid meet">

<g transform="translate(0.000000,300.000000) scale(0.100000,-0.100000)"
fill="#FFFFFF" stroke="none">
<path d="M1245 2951 c-600 -110 -1060 -556 -1185 -1149 -27 -124 -37 -356 -21
-477 103 -782 792 -1347 1568 -1284 211 17 374 63 564 161 270 139 500 371
639 648 48 94 110 279 131 385 22 108 19 447 -4 554 -65 302 -193 538 -406
751 -206 206 -429 330 -711 397 -147 34 -427 41 -575 14z m537 -41 c504 -106
912 -469 1073 -953 58 -175 70 -251 70 -452 -1 -131 -5 -204 -18 -268 -117
-582 -549 -1017 -1138 -1144 -120 -26 -429 -25 -549 1 -283 62 -511 181 -712
375 -226 216 -364 472 -425 786 -25 134 -23 388 5 521 65 302 187 530 396 740
233 232 507 368 836 414 103 14 351 4 462 -20z"/>
<path d="M1587 2873 c-17 -16 -4 -23 32 -17 33 5 41 3 50 -15 10 -18 9 -21
-10 -21 -18 0 -19 -3 -9 -14 6 -8 10 -33 9 -55 -2 -22 0 -44 4 -48 12 -12 27
18 27 55 0 20 6 35 15 39 14 5 14 7 1 22 -8 9 -24 26 -36 39 -19 21 -68 30
-83 15z"/>
<path d="M1250 2861 c-18 -5 -26 -15 -28 -34 -2 -15 -10 -27 -18 -27 -24 0
-221 -69 -289 -101 -85 -41 -103 -67 -23 -34 30 12 35 -24 7 -46 -23 -18 -24
-18 -41 1 -18 22 -48 26 -66 8 -21 -21 -13 -38 18 -38 22 0 28 -4 24 -15 -5
-11 1 -15 20 -15 15 0 26 6 26 14 0 7 11 21 24 29 21 14 26 14 36 2 7 -8 19
-15 26 -15 10 0 8 11 -9 46 -21 45 -22 46 -3 60 11 8 31 14 45 14 l26 0 -24
-19 -24 -19 21 -11 c26 -14 65 -14 79 0 8 8 13 8 17 0 4 -6 14 -11 21 -11 12
0 11 9 -5 49 -20 53 -18 61 16 61 18 0 23 -7 29 -41 4 -22 13 -43 21 -46 23
-9 24 -1 9 49 -15 51 -12 58 21 58 18 0 23 -7 28 -45 5 -29 12 -45 22 -45 16
0 17 10 5 63 -10 42 -13 40 82 52 39 5 47 3 47 -9 0 -12 -11 -16 -45 -16 -26
0 -45 -5 -45 -11 0 -7 14 -8 40 -4 48 8 54 -7 10 -25 -31 -13 -40 -30 -17 -30
7 0 22 7 33 15 25 19 34 19 34 0 0 -8 7 -15 15 -15 11 0 14 12 12 53 l-2 52
40 -1 c63 -3 65 -3 65 -17 0 -9 -10 -12 -30 -9 -22 3 -32 0 -36 -13 -9 -22 14
-37 44 -30 17 4 22 1 22 -15 0 -31 28 -24 32 7 2 17 10 29 21 31 14 3 18 -1
15 -17 -2 -11 2 -20 7 -21 6 0 10 10 10 23 0 17 -7 23 -27 25 -42 5 -36 32 7
32 19 0 35 5 35 10 0 13 -207 13 -305 -1 -82 -11 -95 -8 -75 16 8 9 30 15 59
16 35 0 41 2 26 9 -24 10 -51 11 -85 1z m274 -90 c3 -5 -4 -11 -16 -14 -25 -7
-33 -3 -23 12 8 13 32 14 39 2z m-450 -53 c4 -16 0 -28 -15 -40 -12 -10 -25
-18 -30 -18 -15 0 -10 18 9 30 16 9 16 11 -3 22 -19 11 -19 11 0 19 30 12 32
11 39 -13z m-247 -114 c-9 -9 -28 6 -21 18 4 6 10 6 17 -1 6 -6 8 -13 4 -17z"/>
<path d="M1135 2819 c-10 -15 3 -25 16 -12 7 7 7 13 1 17 -6 3 -14 1 -17 -5z"/>
<path d="M1800 2790 c0 -5 5 -12 11 -15 6 -4 8 -22 4 -46 -4 -24 -3 -39 3 -39
6 0 33 -22 61 -49 31 -30 53 -45 57 -39 4 6 -6 20 -22 32 -68 50 -75 59 -68
94 6 32 35 45 49 22 10 -17 -5 -50 -23 -50 -21 0 -4 -17 22 -22 15 -2 21 5 28
30 5 20 15 32 25 32 33 0 -2 18 -74 38 -40 11 -73 17 -73 12z"/>
<path d="M1970 2735 c0 -2 23 -16 50 -30 28 -14 48 -30 44 -36 -4 -7 -12 -5
-23 5 -10 9 -32 16 -49 16 -25 0 -32 -4 -32 -19 0 -21 44 -61 66 -61 8 0 13
-5 12 -11 -2 -6 2 -13 8 -16 7 -2 20 16 30 41 15 37 23 45 38 40 43 -14 1 18
-61 46 -64 29 -83 35 -83 25z m66 -80 c18 -14 17 -15 -15 -13 -19 2 -36 9 -39
16 -5 17 30 15 54 -3z"/>
<path d="M2085 2720 c3 -5 10 -10 16 -10 5 0 9 5 9 10 0 6 -7 10 -16 10 -8 0
-12 -4 -9 -10z"/>
<path d="M731 2649 c-28 -17 -32 -24 -28 -48 5 -24 0 -33 -44 -65 -53 -41 -60
-51 -29 -43 10 3 25 -2 31 -10 10 -11 9 -17 -6 -31 -13 -13 -19 -14 -22 -4 -7
19 -58 14 -78 -8 -26 -29 -9 -38 20 -10 28 27 36 8 8 -22 -14 -16 -14 -18 -1
-18 9 0 21 7 28 15 14 17 40 20 40 6 0 -18 -32 -41 -56 -41 -14 0 -22 -4 -19
-10 8 -13 55 -2 78 18 9 8 17 28 17 44 0 28 1 29 37 22 l37 -7 -37 45 -37 45
25 17 c24 16 25 16 51 -24 15 -22 30 -40 35 -40 19 0 16 19 -7 54 -21 31 -23
40 -13 53 11 13 10 15 -6 13 -33 -4 -36 -1 -25 21 7 11 26 27 43 34 24 11 27
14 12 15 -11 0 -35 -9 -54 -21z"/>
<path d="M1335 2639 c-496 -71 -895 -469 -970 -966 -26 -174 -13 -343 41 -513
88 -282 296 -532 552 -668 284 -150 621 -173 932 -64 211 74 427 243 552 433
71 107 101 168 138 277 172 515 -36 1073 -505 1354 -209 126 -495 182 -740
147z m378 -45 c400 -76 737 -387 851 -787 75 -260 51 -534 -68 -782 -331 -691
-1240 -849 -1781 -310 -237 236 -348 542 -323 888 43 581 565 1041 1148 1011
52 -3 130 -12 173 -20z"/>
<path d="M1430 2490 c0 -54 2 -60 21 -60 15 0 19 4 15 16 -3 9 -6 36 -6 60 0
32 -4 44 -15 44 -12 0 -15 -13 -15 -60z"/>
<path d="M1490 2540 c0 -5 11 -10 25 -10 23 0 25 -3 25 -50 0 -38 4 -50 15
-50 11 0 15 12 15 50 0 47 2 50 26 50 14 0 23 4 19 10 -3 6 -33 10 -66 10 -33
0 -59 -4 -59 -10z"/>
<path d="M1315 2533 c-40 -6 -57 -23 -23 -23 24 0 27 -5 34 -45 5 -34 11 -45
24 -45 16 0 17 5 9 38 -12 54 -11 62 10 62 11 0 23 5 26 10 6 10 -22 11 -80 3z"/>
<path d="M1654 2494 c-8 -58 2 -76 50 -88 45 -12 61 1 74 61 8 32 7 43 -4 47
-16 6 -20 1 -28 -46 -8 -43 -14 -49 -45 -41 -20 5 -22 11 -19 56 4 67 -18 76
-28 11z"/>
<path d="M1147 2480 c-39 -31 -26 -50 34 -50 27 0 49 -4 49 -10 0 -16 -34 -28
-63 -23 -33 6 -37 -14 -4 -22 44 -11 106 28 93 60 -4 11 -20 15 -57 15 -44 0
-50 2 -39 15 7 8 25 14 41 12 15 -1 29 3 31 8 6 20 -58 16 -85 -5z"/>
<path d="M1825 2490 c-3 -5 4 -11 15 -15 24 -8 25 -15 5 -62 -11 -25 -12 -40
-5 -47 13 -13 25 0 40 46 10 33 15 37 36 32 13 -3 24 -2 24 2 0 13 -109 54
-115 44z"/>
<path d="M1045 2440 c-3 -5 1 -23 10 -40 18 -35 17 -35 -32 -15 -20 9 -45 13
-55 9 -17 -5 -17 -9 9 -55 16 -27 34 -49 41 -49 16 0 15 16 -4 45 -19 29 -10
31 39 10 29 -12 67 -12 67 0 0 7 -53 96 -60 100 -5 3 -11 1 -15 -5z"/>
<path d="M1956 2386 c-14 -25 -26 -48 -26 -53 0 -12 96 -64 104 -56 3 3 -12
17 -35 31 -29 17 -38 27 -30 35 8 8 21 6 46 -6 43 -20 47 -5 5 20 -16 9 -30
21 -30 25 0 16 18 16 46 -3 32 -21 44 -24 44 -11 0 5 -22 21 -49 35 l-49 27
-26 -44z"/>
<path d="M1365 2359 c-275 -40 -523 -225 -646 -482 -62 -131 -82 -220 -82
-372 -1 -142 13 -213 64 -336 187 -456 728 -658 1173 -440 319 156 505 477
483 830 -32 506 -488 873 -992 800z m300 -44 c266 -56 484 -235 592 -485 51
-118 66 -212 60 -365 -3 -95 -11 -149 -27 -200 -218 -688 -1131 -801 -1505
-185 -83 136 -121 297 -112 467 7 137 24 202 87 330 107 218 323 386 564 438
82 18 255 18 341 0z"/>
<path d="M1487 2278 c-15 -86 -49 -399 -44 -404 3 -3 19 1 35 10 29 15 30 15
36 -16 3 -17 6 -41 6 -53 0 -20 17 -35 39 -35 4 0 20 23 36 52 l28 51 19 -23
c10 -12 21 -21 24 -18 6 7 105 410 102 414 -2 1 -50 -90 -108 -202 -75 -145
-107 -199 -112 -186 -4 9 -17 112 -29 227 -12 116 -23 211 -24 213 -1 2 -5
-12 -8 -30z"/>
<path d="M1221 2223 c33 -133 97 -418 96 -420 -2 -1 -79 69 -172 156 -94 87
-171 157 -173 156 -2 -2 53 -87 121 -190 l125 -187 21 40 21 41 38 -41 c34
-36 40 -39 59 -28 17 11 19 18 12 54 -13 68 -12 74 16 68 14 -2 25 -2 25 2 0
9 -189 386 -194 386 -2 0 0 -17 5 -37z"/>
<path d="M1851 1975 c-84 -78 -154 -146 -155 -150 0 -5 13 -13 31 -19 l32 -11
-29 -35 c-55 -66 -34 -97 46 -70 l54 19 0 -30 c0 -20 5 -29 13 -27 15 3 347
242 343 246 -2 1 -96 -36 -211 -83 -114 -48 -209 -84 -212 -81 -3 3 52 89 122
191 70 103 125 188 123 189 -2 2 -72 -61 -157 -139z"/>
<path d="M805 1892 c6 -5 88 -67 183 -137 95 -70 171 -129 169 -132 -3 -2
-105 1 -227 7 -122 6 -224 10 -226 8 -2 -2 87 -30 197 -62 110 -31 208 -60
216 -63 14 -5 15 0 10 36 l-5 43 53 -7 c49 -6 54 -5 60 17 6 18 0 29 -36 61
-43 38 -43 46 -4 60 16 7 8 10 -175 87 -215 89 -228 94 -215 82z"/>
<path d="M1437 1823 c-15 -4 -18 -13 -15 -45 3 -39 1 -42 -45 -71 l-48 -29
-30 28 c-28 27 -29 27 -43 8 -13 -17 -12 -22 14 -49 l28 -30 -20 -54 -20 -53
-39 5 c-37 5 -39 4 -39 -23 0 -27 3 -29 42 -32 42 -3 43 -4 62 -57 16 -45 17
-55 5 -61 -47 -27 -50 -34 -33 -58 l15 -23 31 26 c34 28 38 28 97 -9 38 -25
40 -27 29 -57 -8 -25 -8 -33 3 -40 27 -17 39 -9 45 30 6 37 9 40 48 46 22 4
49 9 59 11 13 4 21 -4 32 -30 17 -40 18 -40 46 -26 19 11 19 11 -1 49 l-19 39
38 43 39 44 35 -17 c34 -16 35 -16 41 5 9 32 9 32 -29 46 l-36 13 3 61 c3 60
4 61 36 69 28 8 32 12 26 31 -9 31 -11 32 -39 19 -40 -18 -48 -15 -88 32 l-37
45 25 29 25 30 -24 16 c-24 15 -25 14 -45 -19 -23 -39 -21 -39 -91 -24 -50 11
-50 11 -50 50 0 21 -3 38 -7 38 -5 -1 -16 -3 -26 -6z m150 -130 c47 -21 100
-85 113 -135 54 -197 -189 -349 -340 -212 -50 45 -71 93 -71 159 0 155 155
253 298 188z"/>
<path d="M1391 1618 c-14 -23 -14 -23 8 -4 22 20 25 26 13 26 -4 0 -13 -10
-21 -22z"/>
<path d="M1470 1636 c0 -2 8 -10 18 -17 15 -13 16 -12 3 4 -13 16 -21 21 -21
13z"/>
<path d="M1585 1610 c3 -5 8 -10 11 -10 2 0 4 5 4 10 0 6 -5 10 -11 10 -5 0
-7 -4 -4 -10z"/>
<path d="M1391 1564 c0 -11 3 -14 6 -6 3 7 2 16 -1 19 -3 4 -6 -2 -5 -13z"/>
<path d="M1361 1484 c0 -11 3 -14 6 -6 3 7 2 16 -1 19 -3 4 -6 -2 -5 -13z"/>
<path d="M1381 1486 c0 -11 -8 -28 -18 -38 -15 -17 -14 -18 38 -16 51 1 52 2
11 5 -36 4 -41 7 -32 18 6 8 10 22 7 32 -4 16 -5 16 -6 -1z"/>
<path d="M1591 1478 c0 -9 5 -20 12 -25 7 -5 -5 -10 -33 -14 l-45 -6 48 -1
c47 -2 47 -2 46 31 0 26 -2 28 -8 12 l-8 -20 -5 20 c-4 15 -6 16 -7 3z"/>
<path d="M1341 1464 c0 -11 3 -14 6 -6 3 7 2 16 -1 19 -3 4 -6 -2 -5 -13z"/>
<path d="M1423 1473 c9 -2 23 -2 30 0 6 3 -1 5 -18 5 -16 0 -22 -2 -12 -5z"/>
<path d="M1533 1473 c9 -2 23 -2 30 0 6 3 -1 5 -18 5 -16 0 -22 -2 -12 -5z"/>
<path d="M1474 1448 c0 -12 7 -18 21 -17 11 0 14 3 7 6 -9 3 -10 9 -3 17 7 8
5 12 -7 12 -10 0 -18 -8 -18 -18z"/>
<path d="M1330 1418 c0 -5 18 -8 40 -8 22 0 40 2 40 4 0 2 -18 6 -40 8 -22 2
-40 0 -40 -4z"/>
<path d="M1478 1413 c6 -2 18 -2 25 0 6 3 1 5 -13 5 -14 0 -19 -2 -12 -5z"/>
<path d="M1588 1413 c12 -2 32 -2 45 0 12 2 2 4 -23 4 -25 0 -35 -2 -22 -4z"/>
<path d="M2055 1635 c-115 -7 -211 -13 -213 -14 -2 0 6 -15 18 -31 23 -33 24
-32 -45 -47 -33 -7 -40 -13 -40 -33 0 -19 10 -27 50 -44 64 -25 61 -22 40 -46
-10 -11 -16 -22 -14 -24 5 -4 421 -28 425 -24 2 2 -96 33 -216 68 -121 36
-216 68 -212 71 4 3 97 32 207 64 174 51 254 77 220 73 -5 0 -104 -7 -220 -13z"/>
<path d="M916 1432 c-114 -36 -204 -68 -199 -69 6 -2 106 3 223 11 118 9 216
14 218 12 2 -3 -78 -66 -177 -142 -100 -75 -180 -139 -178 -140 2 -2 75 28
163 67 87 39 179 80 204 91 l45 20 -30 23 c-16 13 -27 26 -25 28 3 2 22 14 43
26 28 17 37 29 35 45 -3 18 -11 21 -62 24 l-58 3 6 35 c4 18 6 34 4 33 -2 -1
-97 -31 -212 -67z"/>
<path d="M1830 1336 c0 -20 -2 -36 -5 -36 -2 0 -25 10 -50 22 -41 20 -47 21
-61 6 -14 -14 -13 -20 10 -67 27 -53 27 -56 -17 -63 -13 -2 23 -41 130 -139
81 -74 154 -139 162 -144 8 -5 -43 76 -113 179 -70 104 -126 189 -124 191 2 2
100 -37 218 -85 117 -49 215 -88 216 -87 3 3 -336 248 -352 254 -10 4 -14 -4
-14 -31z"/>
<path d="M1167 1188 c-66 -103 -170 -267 -182 -288 -5 -8 69 59 163 149 95 90
172 161 172 157 0 -3 -22 -105 -50 -227 -27 -122 -50 -224 -49 -228 0 -3 45
84 100 194 l98 200 -34 3 -34 3 15 47 c18 60 18 59 -7 67 -15 5 -32 -2 -59
-24 -21 -17 -41 -31 -44 -31 -3 0 -12 15 -19 33 l-14 32 -56 -87z"/>
<path d="M1527 1223 c-3 -5 -8 -29 -12 -55 -8 -51 -14 -55 -45 -36 -10 7 -21
10 -24 7 -3 -3 7 -99 21 -213 16 -123 30 -201 34 -190 4 11 17 111 28 223 12
112 23 206 25 208 1 2 49 -86 106 -194 93 -180 135 -251 116 -199 -4 11 -27
101 -52 200 -57 231 -50 213 -77 187 -13 -11 -26 -21 -29 -21 -4 0 -14 20 -24
45 -13 35 -22 45 -40 45 -12 0 -25 -3 -27 -7z"/>
<path d="M904 2346 c-6 -15 42 -96 57 -96 22 0 17 24 -12 65 -36 50 -37 51
-45 31z"/>
<path d="M2134 2245 c-14 -21 -14 -30 -4 -55 25 -61 96 -81 126 -35 19 29 13
54 -23 89 -34 34 -77 35 -99 1z m98 -30 c10 -22 9 -29 -9 -46 -17 -17 -24 -19
-41 -10 -11 6 -24 20 -27 31 -15 49 56 71 77 25z"/>
<path d="M736 2212 c-3 -5 13 -26 34 -47 l40 -39 40 39 c21 21 37 42 33 47 -3
6 -20 -4 -37 -21 l-32 -31 -29 30 c-30 31 -40 36 -49 22z"/>
<path d="M2267 2113 c-35 -26 -45 -39 -37 -47 7 -7 16 -7 31 2 18 11 23 10 41
-13 25 -33 37 -25 14 10 -27 41 -7 54 25 15 41 -49 47 -30 8 24 -18 25 -33 46
-33 46 -1 0 -23 -17 -49 -37z"/>
<path d="M650 2125 c-11 -13 -9 -25 15 -75 28 -58 49 -71 43 -26 -3 28 28 77
45 70 8 -3 19 2 26 10 10 12 5 16 -36 21 -26 4 -55 9 -64 11 -9 2 -22 -3 -29
-11z m60 -36 c0 -15 -22 -21 -31 -8 -14 22 -11 28 11 22 11 -3 20 -9 20 -14z"/>
<path d="M587 2028 c-3 -7 9 -26 27 -41 l31 -28 -43 3 c-61 3 -71 -17 -29 -60
l32 -34 -41 7 c-27 4 -44 2 -49 -5 -10 -16 -5 -19 58 -26 73 -9 86 11 39 59
l-31 32 44 -3 c63 -5 70 17 19 69 -41 42 -50 46 -57 27z"/>
<path d="M2380 1929 c-24 -11 -46 -21 -47 -23 -6 -6 40 -106 48 -106 12 0 12
2 -6 43 -19 45 -19 47 1 47 8 0 22 -17 31 -37 12 -26 18 -33 20 -21 3 9 -1 26
-6 37 -15 26 -14 41 2 41 7 0 19 -16 26 -35 7 -19 17 -35 23 -35 5 0 8 6 5 13
-30 76 -40 97 -46 96 -3 0 -26 -9 -51 -20z"/>
<path d="M494 1775 c-20 -30 -22 -88 -5 -109 18 -22 64 -20 85 3 26 29 32 88
11 111 -26 28 -71 26 -91 -5z m74 -17 c30 -30 0 -85 -41 -74 -21 5 -27 12 -27
34 0 31 16 52 40 52 9 0 21 -5 28 -12z"/>
<path d="M2443 1776 c-36 -6 -53 -14 -53 -24 0 -11 8 -13 36 -9 35 6 36 6 20
-16 -46 -64 -49 -68 -39 -78 15 -15 113 9 113 27 0 12 -8 13 -36 8 -40 -7 -40
0 -2 43 11 11 18 29 16 40 -3 16 -8 17 -55 9z"/>
<path d="M472 1598 c-19 -19 -15 -102 6 -121 24 -22 55 -21 75 1 40 44 28 132
-18 132 -22 0 -25 -4 -25 -35 0 -19 5 -35 10 -35 6 0 10 9 10 20 0 29 18 25
26 -5 7 -27 -18 -65 -42 -65 -25 0 -43 40 -32 71 12 36 8 55 -10 37z"/>
<path d="M2436 1594 c-23 -22 -30 -60 -19 -97 7 -25 15 -33 36 -35 24 -3 27 0
27 27 0 16 -4 33 -10 36 -5 3 -10 -3 -10 -14 0 -27 -17 -27 -25 -1 -15 46 28
87 61 59 13 -10 15 -24 9 -63 -5 -44 -4 -48 9 -36 24 19 21 95 -4 120 -24 24
-53 26 -74 4z"/>
<path d="M513 1417 c-37 -6 -53 -13 -53 -24 0 -12 8 -13 42 -8 l41 7 -31 -38
c-36 -43 -43 -78 -14 -70 9 2 36 8 60 11 54 9 51 31 -3 27 l-38 -3 32 39 c49
63 43 73 -36 59z"/>
<path d="M2428 1409 c-24 -14 -41 -80 -28 -113 10 -27 50 -37 50 -13 0 6 3 22
6 35 4 13 2 22 -5 22 -6 0 -11 -7 -11 -15 0 -18 -19 -20 -21 -2 -4 43 19 72
50 62 28 -9 38 -51 17 -74 -9 -10 -16 -23 -16 -30 0 -20 24 -7 37 20 37 71
-17 144 -79 108z"/>
<path d="M543 1250 c-42 -17 -41 -82 0 -127 24 -27 44 -29 76 -7 20 14 22 23
18 58 -4 27 -15 48 -32 63 -29 25 -30 26 -62 13z m67 -50 c14 -27 4 -57 -21
-65 -23 -8 -45 8 -54 36 -14 44 54 69 75 29z"/>
<path d="M2370 1235 c0 -8 5 -15 10 -15 6 0 10 7 10 15 0 8 -4 15 -10 15 -5 0
-10 -7 -10 -15z"/>
<path d="M640 1110 c0 -6 7 -24 15 -40 15 -29 15 -30 -26 -56 -27 -17 -38 -29
-31 -36 10 -10 85 22 97 42 4 6 -5 31 -20 55 -26 45 -35 54 -35 35z"/>
<path d="M2318 1103 c-9 -10 -20 -30 -23 -45 -4 -16 -11 -28 -16 -28 -5 0 -9
-7 -9 -16 0 -8 5 -12 10 -9 6 4 18 1 26 -6 12 -10 16 -9 21 9 7 27 20 28 28 2
12 -37 45 -21 60 28 5 18 2 25 -14 29 -11 3 -21 15 -23 27 -4 27 -39 33 -60 9z
m42 -27 c0 -7 -9 -16 -20 -19 -19 -5 -28 12 -13 26 11 12 33 7 33 -7z m31 -49
c-13 -13 -26 -3 -16 12 3 6 11 8 17 5 6 -4 6 -10 -1 -17z"/>
<path d="M2200 906 c0 -8 16 -27 35 -42 34 -25 35 -28 19 -45 -10 -11 -14 -22
-10 -26 7 -8 55 43 77 80 12 21 -4 23 -21 2 -11 -13 -17 -11 -47 15 -37 33
-53 38 -53 16z"/>
<path d="M740 885 c-27 -29 -45 -32 -54 -9 -3 8 -11 12 -16 9 -6 -4 7 -27 32
-57 23 -28 44 -45 46 -39 2 6 -2 19 -9 27 -11 14 -8 21 24 46 35 29 41 48 13
48 -7 0 -23 -11 -36 -25z"/>
<path d="M2129 836 c-45 -33 -81 -68 -76 -73 4 -3 23 7 43 22 27 21 39 24 47
16 9 -9 4 -18 -21 -37 -18 -14 -29 -30 -26 -36 4 -5 19 2 35 18 20 20 32 25
40 17 7 -7 1 -18 -21 -37 -17 -14 -30 -31 -28 -37 3 -10 88 56 88 69 0 4 -15
26 -33 48 -27 34 -36 40 -48 30z"/>
<path d="M815 794 c-29 -35 -35 -48 -25 -54 10 -6 21 1 37 23 l23 31 0 -45 c0
-25 6 -53 13 -63 13 -17 16 -16 45 20 l32 39 0 -62 c0 -79 16 -87 89 -42 49
31 60 56 18 45 -26 -6 -77 20 -77 40 0 8 -9 24 -19 36 l-20 20 -25 -28 -25
-29 -1 46 c0 72 -20 79 -65 23z m190 -123 c3 -6 -4 -15 -15 -21 -17 -9 -20 -8
-20 10 0 20 24 28 35 11z"/>
<path d="M1993 731 c-30 -8 -63 -37 -63 -56 0 -21 19 -19 27 3 15 39 58 43 75
7 14 -30 -1 -52 -39 -57 -30 -3 -44 -28 -16 -28 27 0 80 36 88 59 13 41 -30
83 -72 72z"/>
<path d="M1856 641 c4 -17 3 -31 -2 -31 -5 0 -19 -3 -31 -6 -16 -4 -23 0 -28
15 -3 12 -13 21 -22 21 -17 0 -13 -26 12 -88 16 -37 40 -35 33 3 -4 17 2 24
25 33 26 10 30 9 34 -8 3 -11 14 -20 24 -20 17 0 17 2 0 53 -11 30 -25 53 -34
55 -14 3 -16 -2 -11 -27z"/>
<path d="M1090 645 c-10 -12 -7 -20 20 -45 18 -16 37 -30 43 -30 7 0 7 -4 -1
-12 -9 -9 -19 -7 -43 11 -35 26 -51 21 -25 -8 26 -28 74 -37 94 -17 14 14 14
17 -2 35 -10 11 -27 23 -37 26 -11 4 -19 13 -19 21 0 21 38 17 52 -6 13 -20
38 -28 38 -11 0 18 -53 51 -80 51 -15 0 -33 -7 -40 -15z"/>
<path d="M1705 619 c-10 -15 3 -25 16 -12 7 7 7 13 1 17 -6 3 -14 1 -17 -5z"/>
<path d="M1470 583 c-10 -29 -17 -33 -48 -33 l-37 -1 29 -24 c28 -22 29 -26
19 -59 l-11 -36 29 21 c28 20 31 20 55 4 31 -20 38 -16 25 18 -9 23 -6 29 22
51 l32 26 -41 0 c-38 0 -42 3 -51 33 l-10 32 -13 -32z"/>
<path d="M2200 2621 c0 -5 4 -13 10 -16 6 -4 4 -15 -6 -30 -12 -18 -13 -28 -4
-45 10 -19 9 -20 -14 -14 -42 10 -30 -14 13 -27 22 -6 43 -21 48 -31 8 -19 11
-17 36 21 30 45 43 50 62 24 11 -15 9 -22 -16 -50 -18 -21 -26 -39 -22 -50 5
-13 13 -8 42 26 29 34 38 40 49 30 8 -9 12 -10 12 -2 0 7 -4 14 -9 17 -5 4 -5
20 1 40 11 36 6 66 -12 66 -6 0 -8 -16 -5 -42 l5 -43 -11 35 c-12 38 -36 70
-26 35 2 -11 8 -29 13 -40 6 -16 0 -14 -31 11 -71 54 -135 95 -135 85z m90
-80 c0 -13 -24 -31 -40 -31 -30 0 -40 20 -23 46 14 22 16 22 39 7 13 -8 24
-18 24 -22z"/>
<path d="M2420 2449 c0 -9 9 -24 20 -34 11 -10 20 -23 20 -28 0 -6 -8 -3 -18
6 -23 21 -42 22 -42 2 0 -8 -7 -15 -15 -15 -26 0 -16 -40 20 -77 19 -20 35
-40 35 -45 0 -5 20 7 44 27 l45 36 12 -22 c10 -20 8 -26 -25 -52 -20 -16 -36
-35 -36 -43 0 -20 7 -18 52 17 21 17 40 30 42 28 2 -2 8 -13 14 -25 9 -18 6
-23 -29 -44 -21 -14 -39 -30 -39 -37 0 -18 7 -16 56 12 l43 25 17 -31 c13 -26
13 -33 3 -40 -7 -4 -19 -3 -26 3 -10 8 -13 4 -13 -21 0 -36 1 -36 40 -16 25
13 29 13 34 -1 9 -22 10 -21 -34 -45 -22 -13 -40 -29 -40 -36 0 -17 4 -17 51
8 46 23 63 16 72 -29 3 -15 9 -35 12 -44 5 -13 2 -18 -9 -18 -9 0 -16 8 -16
18 0 22 -19 42 -38 42 -11 0 -13 -9 -8 -40 4 -25 2 -40 -4 -40 -5 0 -10 -7
-10 -16 0 -12 6 -15 22 -11 22 6 48 -7 48 -25 0 -6 -9 -8 -20 -5 -13 3 -20 0
-20 -10 0 -9 8 -13 23 -11 18 2 22 9 21 35 -2 43 21 51 35 11 21 -60 15 -76
-31 -85 -27 -5 -44 -15 -46 -25 -3 -14 3 -15 43 -6 34 7 50 7 60 -2 12 -10 15
-9 15 4 0 9 9 29 21 45 22 30 18 78 -8 88 -22 8 -27 -4 -9 -22 18 -19 21 -60
5 -70 -14 -9 -16 -6 -22 32 -9 58 -38 136 -98 261 -35 75 -53 122 -45 122 16
0 42 -28 55 -60 7 -18 10 -20 10 -7 1 22 -22 69 -43 86 -12 10 -19 11 -30 2
-11 -9 -18 -6 -33 16 -16 23 -18 35 -11 68 9 43 4 85 -11 85 -6 0 -7 -25 -4
-55 3 -30 3 -55 1 -55 -3 0 -24 24 -46 53 -73 92 -112 133 -112 116z m55 -99
c5 8 10 9 18 1 7 -7 3 -16 -14 -30 -13 -11 -29 -20 -35 -21 -15 0 -68 50 -60
57 3 3 15 -2 26 -12 25 -23 39 -12 17 13 -28 31 -19 37 12 8 20 -19 31 -24 36
-16z m219 -416 c11 -27 7 -37 -9 -24 -16 14 -20 40 -6 40 5 0 12 -7 15 -16z"/>
<path d="M392 2238 c-64 -98 -117 -204 -150 -302 -15 -46 -26 -62 -50 -73 -34
-16 -68 -50 -60 -59 3 -2 19 9 36 26 17 16 35 30 40 30 5 0 1 -37 -9 -82 -10
-46 -19 -100 -19 -120 0 -39 -17 -59 -31 -37 -6 10 -11 6 -18 -14 -6 -15 -15
-27 -21 -27 -5 0 -10 -7 -10 -15 0 -21 5 -19 35 11 14 14 28 24 31 21 3 -3 -6
-16 -20 -30 -26 -26 -34 -47 -18 -47 5 0 15 12 23 28 13 25 14 18 17 -90 3
-133 22 -165 22 -38 0 47 4 80 10 80 10 0 11 -9 14 -95 1 -53 33 -61 65 -17
29 42 26 51 -5 17 -26 -28 -27 -28 -41 -9 -12 16 -12 20 4 32 15 10 15 16 5
32 -18 29 -15 38 15 42 14 2 28 9 31 16 2 8 -11 12 -47 12 -50 0 -51 0 -51 31
l0 31 49 -7 c38 -5 50 -3 54 8 4 12 -7 16 -50 22 -55 7 -55 7 -49 37 3 17 6
34 6 38 0 5 9 6 19 3 13 -3 18 -10 14 -21 -5 -14 -3 -14 15 2 31 27 28 46 -9
46 -26 0 -30 3 -27 23 3 23 2 22 82 14 39 -4 28 22 -12 29 -53 8 -62 16 -55
42 4 18 10 21 32 15 72 -19 97 4 27 24 l-46 13 21 58 c23 61 35 80 45 69 3 -3
-1 -16 -10 -29 -20 -28 -20 -52 -1 -68 13 -11 20 -9 40 10 14 13 25 32 25 42
0 10 6 18 14 18 35 0 23 21 -23 41 -46 19 -50 23 -39 43 6 11 12 22 13 24 2 2
22 -6 45 -18 28 -14 46 -18 52 -12 7 7 -3 17 -30 31 -22 11 -43 24 -45 29 -8
12 83 152 99 152 10 0 8 -9 -7 -34 -11 -19 -27 -40 -35 -46 -7 -7 -14 -23 -14
-36 0 -20 5 -24 33 -24 17 0 39 5 47 11 11 8 7 9 -16 4 -22 -4 -33 -2 -37 8
-7 19 7 39 24 35 9 -2 15 8 17 30 4 35 12 39 42 20 14 -9 22 -10 31 -1 8 8 0
17 -31 34 -30 17 -40 28 -37 41 10 38 -13 14 -71 -74z m-52 -272 c0 -27 -17
-43 -30 -30 -10 11 6 54 20 54 5 0 10 -11 10 -24z"/>
<path d="M2808 1644 c-5 -4 -8 -18 -8 -31 0 -14 -6 -23 -15 -23 -8 0 -15 7
-15 15 0 8 -4 15 -9 15 -12 0 -65 -79 -58 -86 3 -3 10 4 17 15 16 30 27 19 22
-22 -3 -24 -10 -37 -23 -40 -10 -3 -19 -10 -19 -16 0 -8 15 -10 49 -5 56 7 63
1 54 -49 -5 -36 -33 -54 -33 -22 0 24 -18 18 -50 -17 -32 -36 -41 -61 -12 -35
10 10 22 17 26 17 13 0 -6 -64 -25 -86 -10 -11 -20 -33 -21 -50 -2 -16 -11
-36 -22 -45 -19 -15 -17 -17 32 -29 51 -12 60 -22 44 -48 -7 -10 -17 -9 -50 2
-34 12 -42 13 -52 1 -9 -11 -3 -16 32 -26 24 -7 47 -16 51 -19 5 -4 -4 -32
-18 -61 -33 -66 -31 -63 -50 -55 -14 5 -13 10 5 47 12 22 19 43 17 46 -9 8
-48 -18 -42 -28 4 -5 3 -19 0 -30 -5 -16 -12 -19 -30 -15 -43 11 -37 -13 10
-36 28 -14 44 -27 41 -35 -3 -7 -1 -13 4 -13 13 0 65 115 101 224 30 90 32
109 9 81 -33 -39 -80 8 -64 65 6 25 7 24 19 -10 6 -19 19 -36 28 -38 20 -4 51
42 44 68 -3 10 -1 20 4 22 5 2 12 39 17 83 8 91 1 281 -10 269z m-4 -100 c11
-29 6 -44 -14 -44 -23 0 -35 22 -26 45 7 20 32 19 40 -1z m-4 -218 c0 -17 -9
-29 -30 -40 -16 -8 -30 -10 -30 -5 0 5 4 9 8 9 5 0 7 14 4 30 -4 27 -1 30 22
30 21 0 26 -5 26 -24z m-20 -79 c0 -8 -3 -17 -7 -20 -9 -9 -34 13 -27 24 8 14
34 11 34 -4z"/>
<path d="M2840 1485 c0 -8 5 -15 10 -15 6 0 10 7 10 15 0 8 -4 15 -10 15 -5 0
-10 -7 -10 -15z"/>
<path d="M201 1242 c-2 -35 30 -152 41 -152 6 0 7 10 4 23 -15 49 -18 87 -8
87 5 0 13 -15 16 -34 4 -19 14 -40 22 -47 14 -11 19 -10 35 10 24 30 25 49 1
28 -10 -10 -21 -17 -24 -17 -6 0 -30 62 -26 65 2 0 15 6 31 13 15 6 27 17 27
23 0 11 -5 11 -87 -8 -15 -4 -23 1 -26 14 -4 14 -5 14 -6 -5z"/>
<path d="M316 1078 c-31 -16 -44 -18 -58 -9 -10 6 -18 7 -18 2 0 -14 70 -174
81 -186 12 -12 12 7 0 38 -8 21 -6 26 10 30 12 3 19 0 19 -9 0 -8 4 -14 9 -14
11 0 18 20 25 75 6 36 5 38 -5 13 -14 -36 -22 -35 -36 2 -9 25 -9 32 4 38 8 5
13 16 12 25 -4 13 -9 13 -43 -5z m11 -65 c13 -19 12 -23 -6 -32 -17 -9 -22 -8
-31 10 -13 24 -6 53 12 47 6 -2 18 -14 25 -25z"/>
<path d="M217 1036 c-6 -15 1 -26 15 -26 11 0 10 27 -1 34 -5 3 -11 0 -14 -8z"/>
<path d="M444 808 c-8 -27 -16 -34 -44 -38 l-34 -5 28 -18 c15 -10 26 -24 23
-30 -2 -7 -8 -23 -12 -36 l-7 -24 31 22 31 22 27 -20 c32 -26 37 -22 23 15
-10 26 -9 31 17 51 l28 23 -33 0 c-28 0 -35 5 -48 35 -8 19 -16 35 -18 35 -2
0 -7 -15 -12 -32z"/>
<path d="M2524 807 c-8 -26 -16 -33 -44 -37 l-35 -5 27 -18 c23 -16 26 -22 17
-43 -15 -41 -11 -47 19 -25 28 20 28 20 60 -1 l32 -20 -12 33 c-10 30 -9 34
16 56 l27 23 -36 0 c-32 0 -36 3 -42 30 -8 42 -19 45 -29 7z"/>
<path d="M630 616 c0 -8 5 -18 10 -21 18 -11 10 -25 -12 -22 -31 3 -36 -35 -8
-63 11 -11 18 -25 15 -30 -3 -5 -1 -11 4 -14 5 -3 23 10 40 29 26 30 34 34 51
25 25 -13 25 -28 0 -60 -11 -14 -20 -34 -19 -45 0 -20 0 -20 17 1 9 11 24 31
33 43 13 21 18 22 38 12 18 -10 20 -15 11 -27 -7 -7 -17 -11 -22 -8 -5 4 -8
-4 -6 -17 4 -32 22 -34 38 -4 13 25 34 33 44 17 3 -5 -6 -25 -19 -45 -14 -20
-25 -41 -25 -46 0 -22 18 -10 44 29 15 23 31 38 36 35 6 -4 10 -1 10 4 0 6
-29 30 -65 53 -59 40 -65 46 -65 79 0 36 -23 79 -35 67 -4 -4 0 -17 9 -30 16
-22 22 -58 10 -58 -4 0 -35 25 -70 56 -40 34 -64 50 -64 40z m44 -87 l-21 -20
-24 21 -24 21 28 -5 c23 -6 27 -3 27 16 0 21 1 21 17 5 16 -16 16 -18 -3 -38z"/>
<path d="M2315 589 c-51 -52 -188 -144 -285 -191 -103 -51 -126 -55 -153 -31
-32 29 -45 35 -52 23 -4 -6 7 -15 24 -21 35 -12 39 -23 14 -38 -16 -9 -16 -10
4 -11 16 0 24 -10 33 -37 7 -21 16 -42 21 -47 17 -19 19 2 4 44 -12 35 -13 45
-3 52 18 11 25 10 31 -6 3 -8 18 -16 34 -18 l28 -4 -29 -12 c-16 -7 -26 -16
-22 -19 11 -12 76 -31 76 -23 0 5 -5 10 -12 12 -9 3 -9 12 1 36 12 28 11 35
-2 50 -15 16 -15 19 3 30 30 18 38 15 62 -28 34 -59 54 -52 23 9 l-24 49 67
40 c37 22 71 38 76 35 10 -6 -33 -42 -50 -43 -6 0 -18 -8 -27 -18 -23 -25 -4
-50 43 -57 l35 -6 -33 15 c-37 17 -38 43 -2 38 15 -1 24 4 27 18 7 26 20 25
43 -2 30 -38 35 -11 5 33 l-27 42 20 20 c18 17 23 18 36 7 9 -7 16 -19 16 -26
0 -8 9 -14 20 -14 11 0 20 6 20 14 0 23 28 40 44 27 11 -9 16 -9 21 -1 4 7 -7
26 -25 45 -18 18 -29 38 -26 44 17 28 -24 7 -59 -30z m52 -17 c9 -15 7 -21 -7
-30 -25 -15 -49 10 -30 33 16 19 23 19 37 -3z m-357 -238 c0 -16 -16 -19 -25
-4 -8 13 4 32 16 25 5 -4 9 -13 9 -21z"/>
<path d="M2443 530 c-13 -5 -23 -14 -23 -20 0 -13 17 -13 25 0 3 5 20 14 38
19 28 8 29 9 7 9 -14 1 -35 -3 -47 -8z"/>
<path d="M922 368 c5 -15 28 -18 29 -3 0 6 -7 12 -17 13 -10 3 -15 -1 -12 -10z"/>
<path d="M1815 350 c3 -5 18 -10 33 -10 21 0 24 2 12 10 -20 13 -53 13 -45 0z"/>
<path d="M1355 339 c-4 -5 -4 -20 -1 -33 l6 -23 -78 13 c-42 7 -93 18 -112 23
-19 6 -41 11 -48 11 -24 0 -3 -17 28 -23 21 -5 28 -11 24 -22 -5 -11 -10 -12
-26 -4 -14 7 -23 7 -33 -1 -19 -16 -9 -37 20 -44 15 -4 22 -11 19 -20 -3 -8
-1 -17 5 -21 6 -3 15 5 21 19 5 14 16 26 25 26 17 0 20 -16 5 -25 -6 -4 -8
-11 -4 -16 9 -16 24 1 24 27 0 15 -7 27 -20 32 -33 12 -8 29 38 24 36 -4 42
-7 42 -28 0 -13 -5 -24 -12 -24 -6 0 -4 -7 5 -18 12 -13 26 -17 47 -14 25 4
30 1 30 -17 0 -41 18 -20 25 29 6 47 9 50 36 50 22 0 29 -5 29 -20 0 -11 -7
-20 -15 -20 -8 0 -15 -4 -15 -8 0 -12 59 -66 65 -60 3 3 -1 11 -10 18 -23 19
-18 31 13 28 16 -2 29 -10 32 -21 10 -36 25 -21 28 28 2 27 8 53 14 56 11 7
-54 17 -142 22 -39 2 -45 5 -48 25 -3 21 -1 23 20 16 20 -6 21 -5 9 10 -15 18
-37 21 -46 5z m-200 -79 c3 -5 -3 -10 -14 -10 -12 0 -21 5 -21 10 0 6 6 10 14
10 8 0 18 -4 21 -10z m209 1 c10 -15 -5 -41 -23 -41 -24 0 -30 8 -24 31 5 19
37 26 47 10z m154 -23 c-2 -15 -10 -23 -23 -23 -13 0 -21 8 -23 23 -3 18 1 22
23 22 22 0 26 -4 23 -22z"/>
<path d="M890 305 c0 -8 7 -15 15 -15 8 0 15 7 15 15 0 8 -7 15 -15 15 -8 0
-15 -7 -15 -15z"/>
<path d="M1752 301 c-65 -17 -77 -34 -16 -24 21 3 34 1 34 -5 0 -6 -10 -12
-22 -14 -15 -2 -24 -11 -26 -27 -3 -21 -1 -23 28 -19 21 3 34 0 37 -9 9 -23
26 -14 21 12 -3 14 1 30 8 36 13 11 15 9 18 -16 2 -13 20 -19 23 -8 5 16 -16
36 -39 38 -30 2 -30 29 0 33 12 2 22 8 22 13 0 12 -12 11 -88 -10z m10 -73
c-6 -6 -15 -8 -19 -4 -4 4 -1 11 7 16 19 12 27 3 12 -12z"/>
<path d="M1485 130 c4 -6 16 -8 27 -4 15 4 18 3 13 -6 -5 -8 -22 -10 -49 -7
l-41 6 28 -16 c36 -18 80 -10 75 15 -2 10 -14 18 -32 20 -19 2 -26 0 -21 -8z"/>
</g>
</svg>
