<svg xmlns="http://www.w3.org/2000/svg" fill="none" viewBox="0 0 32 32" id="Business-Coaching-Whistle--Streamline-Freehand.svg" height="32" width="32"><desc>Business Coaching Whistle Streamline Icon: https://streamlinehq.com</desc><path fill="#ffffff" d="M17.221333333333334 17.911466666666666c0.42093333333333327 -0.37026666666666663 0.9128 -0.6510666666666667 1.4454666666666667 -0.8255999999999999 0.5327999999999999 -0.17453333333333332 1.0954666666666666 -0.23906666666666665 1.6538666666666666 -0.18973333333333334 0.09919999999999998 0.012399999999999998 0.1992 -0.015066666666666666 0.27813333333333334 -0.07653333333333333 0.07893333333333333 -0.06133333333333333 0.13026666666666664 -0.15159999999999998 0.14266666666666666 -0.25079999999999997 0.012399999999999998 -0.09919999999999998 -0.0152 -0.1992 -0.07653333333333333 -0.27813333333333334s-0.15159999999999998 -0.13026666666666664 -0.25079999999999997 -0.14266666666666666c-0.6673333333333332 -0.09773333333333334 -1.3474666666666666 -0.05933333333333333 -1.9994666666666667 0.11293333333333333 -0.6519999999999999 0.1721333333333333 -1.2625333333333333 0.4746666666666666 -1.7945333333333333 0.8890666666666666 -1.1187999999999998 0.8255999999999999 -1.8864 2.0414666666666665 -2.1508 3.406533333333333 -0.2392 1.1917333333333333 -0.10386666666666666 2.4282666666666666 0.3874666666666667 3.5401333333333334 0.3897333333333333 0.7945333333333333 1.0541333333333331 1.4210666666666667 1.8702666666666667 1.7634666666666665 1.2337333333333333 0.5193333333333333 2.6031999999999997 0.6224 3.9008000000000003 0.29386666666666666 1.2668 -0.3138666666666666 2.4139999999999997 -0.9918666666666667 3.299733333333333 -1.9504000000000001 0.4688 -0.48960000000000004 0.8251999999999999 -1.0754666666666666 1.0444 -1.7169333333333334 0.21919999999999998 -0.6413333333333333 0.2958666666666666 -1.3228 0.22466666666666668 -1.9969333333333332 -0.0744 -0.6602666666666666 -0.29533333333333334 -1.2954666666666665 -0.6466666666666666 -1.8594666666666666 -0.3512 -0.5638666666666666 -0.8241333333333333 -1.0422666666666665 -1.3838666666666666 -1.4001333333333332 -0.09506666666666666 -0.057866666666666663 -0.20853333333333335 -0.0776 -0.3174666666666667 -0.05533333333333333 -0.10906666666666666 0.022266666666666664 -0.2056 0.08506666666666665 -0.2704 0.1756 -0.032 0.046 -0.054400000000000004 0.09799999999999999 -0.06573333333333332 0.15306666666666666 -0.011333333333333334 0.054933333333333334 -0.011333333333333334 0.11159999999999999 -0.00013333333333333334 0.1665333333333333 0.011199999999999998 0.054933333333333334 0.0336 0.10706666666666666 0.06559999999999999 0.1532 0.032 0.04613333333333333 0.07293333333333332 0.0852 0.12053333333333333 0.11493333333333333 0.41759999999999997 0.29706666666666665 0.7639999999999999 0.6831999999999999 1.0141333333333333 1.1305333333333332 0.2501333333333333 0.44719999999999993 0.39786666666666665 0.9445333333333333 0.43239999999999995 1.4558666666666666 0.03453333333333333 0.5113333333333333 -0.04506666666666666 1.0238666666666667 -0.2328 1.5008 -0.18773333333333334 0.47679999999999995 -0.47906666666666664 0.9059999999999999 -0.8530666666666666 1.2564 -0.7649333333333332 0.7332000000000001 -1.7170666666666667 1.2416 -2.7518666666666665 1.4696 -1.0094666666666665 0.23106666666666667 -2.066133333333333 0.1376 -3.0192 -0.2672 -0.3173333333333333 -0.13479999999999998 -0.6013333333333333 -0.33746666666666664 -0.8321333333333333 -0.5935999999999999 -0.2308 -0.2561333333333333 -0.4026666666666666 -0.5597333333333333 -0.5038666666666667 -0.8893333333333333 -0.2572 -0.7461333333333333 -0.3350666666666667 -1.5425333333333333 -0.22706666666666667 -2.3244 0.14546666666666666 -1.0732 0.6774666666666667 -2.0564 1.4962666666666666 -2.765333333333333Z" stroke-width="1"></path><path fill="#ffffff" d="M31.5156 22.881066666666662c-0.2628 -0.3865333333333333 -0.6286666666666666 -0.6916 -1.0561333333333334 -0.8805333333333333 -0.42733333333333334 -0.18893333333333331 -0.8992 -0.2541333333333333 -1.3618666666666668 -0.18826666666666664 -0.18106666666666665 0.025866666666666666 -0.3597333333333333 0.06613333333333332 -0.5344 0.12026666666666666 0.22266666666666668 -2.0309333333333335 -0.35733333333333334 -4.068533333333333 -1.6163999999999998 -5.6776 -1.3195999999999999 -1.5324 -3.0406666666666666 -2.666 -4.9696 -3.27304 -2.755333333333333 -0.7595333333333333 -5.558 -1.33524 -8.3896 -1.7233199999999997 -1.8385733333333332 -0.3628 -3.69984 -0.5993733333333333 -5.570733333333333 -0.70804 -1.8583733333333332 -0.13065333333333332 -3.7223999999999995 -0.16186666666666666 -5.584106666666667 -0.09350666666666665 -0.05553333333333333 -0.00002666666666666667 -0.11049333333333333 0.011106666666666667 -0.16164 0.03274666666666666 -0.051133333333333336 0.02164 -0.09738666666666665 0.05334666666666666 -0.13602666666666666 0.09322666666666665 -0.038639999999999994 0.03989333333333333 -0.06885333333333332 0.08713333333333334 -0.08886666666666666 0.13893333333333333 -0.020013333333333334 0.05178666666666666 -0.0294 0.10708000000000001 -0.0276 0.16258666666666666 0.0017199999999999997 0.056146666666666664 0.014493333333333332 0.1114 0.037586666666666664 0.1626 0.023106666666666668 0.05121333333333333 0.05606666666666666 0.09737333333333333 0.09699999999999999 0.13582666666666665 0.040946666666666666 0.03846666666666666 0.08906666666666666 0.06848 0.1416133333333333 0.08833333333333333s0.10849333333333333 0.029146666666666668 0.16464 0.027373333333333333c1.85468 -0.027906666666666666 3.7095599999999997 0.03897333333333333 5.5573999999999995 0.20038666666666666 1.1355199999999999 0.09350666666666665 2.271053333333333 0.24045333333333332 3.3665066666666665 0.42749333333333334 -0.16517333333333334 0.43193333333333334 -0.28602666666666665 0.8795333333333333 -0.3607066666666666 1.3359066666666666 -0.03729333333333333 0.28902666666666665 0.03937333333333333 0.5812933333333333 0.21374666666666667 0.8148933333333332 0.2713333333333333 0.3350666666666667 0.6329199999999999 0.5853333333333333 1.0420133333333332 0.7214666666666667 0.7306933333333332 0.20039999999999997 1.47704 0.3389333333333333 2.23104 0.4141333333333333 0.29506666666666664 0.05853333333333333 0.5943999999999999 0.09426666666666667 0.8949333333333334 0.1068 0.2285333333333333 -0.015066666666666666 0.4494666666666667 -0.08866666666666667 0.6413333333333333 -0.21373333333333333 0.2833333333333333 -0.21439999999999998 0.5046666666666666 -0.5002666666666666 0.6412 -0.8282666666666666 0.16413333333333333 -0.43439999999999995 0.29359999999999997 -0.8810666666666667 0.3874666666666667 -1.3359066666666666 1.5458666666666665 0.2500266666666666 3.066 0.6389733333333333 4.542 1.1621733333333333 1.6956 0.5504 3.2009333333333334 1.5693333333333332 4.341733333333333 2.9390666666666663 0.5598666666666666 0.7582666666666666 0.9528 1.6263999999999998 1.1530666666666667 2.5474666666666668 0.20026666666666665 0.9209333333333333 0.20346666666666668 1.8738666666666666 0.0092 2.7961333333333336 -0.3109333333333333 1.906 -1.3443999999999998 3.618933333333333 -2.8856 4.782666666666667 -0.7822666666666667 0.5341333333333333 -1.6633333333333333 0.9066666666666667 -2.5915999999999997 1.0954666666666666 -0.9406666666666667 0.2188 -1.9102666666666668 0.2864 -2.8722666666666665 0.20026666666666665 -1.1562666666666666 -0.08559999999999998 -2.2789333333333333 -0.4278666666666667 -3.2862666666666667 -1.0018666666666665 -1.0099999999999998 -0.5517333333333333 -1.8541333333333334 -1.3634666666666666 -2.444773333333333 -2.3512 -0.4382933333333333 -0.6644 -0.7885466666666666 -1.3829333333333331 -1.0420133333333332 -2.1374666666666666 -0.23581333333333332 -0.7369333333333332 -0.31321333333333334 -1.5154666666666667 -0.2270933333333333 -2.2843999999999998 0.0172 -0.12279999999999999 -0.007786666666666666 -0.24786666666666668 -0.07088 -0.3546666666666667s-0.16057333333333332 -0.18893333333333331 -0.27646666666666664 -0.2332L0.9632506666666667 16.482c0 -0.2672 0.08015466666666667 -3.76728 0.08015466666666667 -3.76728 0.0036813333333333333 -0.04957333333333333 -0.00292 -0.09936 -0.019390666666666667 -0.14625333333333332 -0.016470666666666665 -0.04689333333333333 -0.042456 -0.08987999999999999 -0.076324 -0.12625333333333333s-0.074888 -0.06536 -0.12048666666666666 -0.08513333333333334c-0.0456 -0.01977333333333333 -0.09479333333333334 -0.029920000000000002 -0.14449599999999999 -0.029773333333333332 -0.09693333333333333 -0.00006666666666666667 -0.19010666666666667 0.03750666666666666 -0.259884 0.10478666666666665 -0.06977733333333333 0.06729333333333333 -0.11070933333333333 0.15902666666666665 -0.11417066666666666 0.2559066666666666l-0.2003872 2.8722666666666665c-0.053902533333333336 0.3541333333333333 -0.08957386666666667 0.7108 -0.10687298666666667 1.0686666666666667 -0.007645066666666666 0.10439999999999999 0.01630112 0.20853333333333335 0.06872085333333333 0.29906666666666665 0.05241973333333333 0.09053333333333333 0.13088466666666665 0.16319999999999998 0.22517933333333331 0.20853333333333335l10.259813333333334 4.0077333333333325c-0.05378666666666666 0.7829333333333334 0.02756 1.5692 0.24045333333333332 2.324533333333333 0.2591733333333333 0.8606666666666666 0.63208 1.6827999999999999 1.1088133333333332 2.4446666666666665 0.67652 1.1613333333333333 1.6373599999999997 2.131333333333333 2.7920266666666667 2.8188 1.1776 0.6850666666666667 2.4908 1.1045333333333334 3.8474666666666666 1.2290666666666665 1.1030666666666666 0.10373333333333332 2.2154666666666665 0.04066666666666666 3.299733333333333 -0.18706666666666666 1.1119999999999999 -0.24653333333333333 2.1678666666666664 -0.6996 3.1126666666666662 -1.3358666666666665 0.5539999999999999 -0.39999999999999997 1.0526666666666666 -0.8717333333333334 1.4828000000000001 -1.4026666666666667l0.1604 0.2672c0.15839999999999999 0.21546666666666664 0.358 0.3973333333333333 0.5873333333333333 0.5349333333333333 0.22946666666666665 0.1376 0.48386666666666667 0.22813333333333333 0.7485333333333333 0.2665333333333333 0.39799999999999996 0.041466666666666666 0.8001333333333333 0.0144 1.1889333333333334 -0.08013333333333333 0.6246666666666667 -0.14093333333333333 1.2064 -0.4296 1.6966666666666665 -0.8415999999999999 0.518 -0.4434666666666667 0.8865333333333334 -1.036 1.0553333333333332 -1.6966666666666665 0.12333333333333332 -0.43546666666666667 0.1549333333333333 -0.8918666666666667 0.0928 -1.3402666666666667 -0.06213333333333333 -0.44839999999999997 -0.2165333333333333 -0.8790666666666667 -0.4534666666666667 -1.2646666666666666Zm-15.763733333333334 -9.351466666666667c-0.10693333333333332 0.18706666666666666 -0.1336 0.5477333333333333 -0.30733333333333335 0.49426666666666663l-2.5515866666666662 -0.5075999999999999c-0.26076 -0.02266666666666667 -0.51472 -0.0952 -0.7481066666666667 -0.21374666666666667 0 -0.8149066666666666 0.18702666666666667 -0.7881866666666666 0.13358666666666666 -1.25576 0.3606933333333333 0.08016 0.7347599999999999 0.13358666666666666 1.09544 0.20038666666666666 0.8684 0.20038666666666666 1.7901333333333334 0.3606933333333333 2.6718666666666664 0.53436 -0.08333333333333333 0.26796 -0.18146666666666667 0.5310933333333333 -0.29386666666666666 0.7882266666666666v-0.040133333333333326Zm14.841866666666665 11.609066666666665c-0.10253333333333332 0.3945333333333333 -0.3157333333333333 0.7514666666666666 -0.6144 1.0286666666666666 -0.3084 0.31399999999999995 -0.6825333333333333 0.5558666666666666 -1.0954666666666666 0.708 -0.20573333333333332 0.08146666666666666 -0.42146666666666666 0.13546666666666665 -0.6413333333333333 0.1604 -0.18186666666666665 0.014666666666666665 -0.3646666666666667 -0.012799999999999999 -0.5342666666666667 -0.08013333333333333 -0.12586666666666665 -0.06373333333333334 -0.23906666666666665 -0.14973333333333333 -0.33399999999999996 -0.2538666666666667 -0.11813333333333333 -0.12426666666666666 -0.22533333333333333 -0.25826666666666664 -0.32066666666666666 -0.40079999999999993 0.6648 -1.0464 1.1186666666666665 -2.2126666666666663 1.3358666666666665 -3.4333333333333336l0.10693333333333332 0c0.19666666666666666 -0.0484 0.3986666666666666 -0.07093333333333332 0.6012 -0.0668 0.2750666666666667 -0.0034666666666666665 0.5457333333333333 0.06973333333333333 0.7816000000000001 0.2112 0.236 0.1416 0.4278666666666667 0.346 0.5542666666666667 0.5904 0.12706666666666666 0.2328 0.20666666666666667 0.4884 0.23413333333333333 0.7521333333333333 0.027466666666666667 0.26359999999999995 0.0024 0.5302666666666667 -0.07386666666666666 0.7841333333333332Z" stroke-width="1"></path><path fill="#ffffff" d="M12.492199999999999 4.979786666666667c0.16030666666666665 0.09351999999999999 0.3339733333333333 0.16030666666666665 0.4007733333333333 0.21374666666666667 0.14154666666666665 0.127 0.23966666666666664 0.2952 0.28054666666666667 0.4809333333333333 0.09485333333333332 0.3088666666666666 0.15753333333333333 0.6267333333333334 0.1870133333333333 0.9484933333333332 -0.0036 0.056159999999999995 0.0038666666666666663 0.11249333333333333 0.02213333333333333 0.16574666666666665 0.01813333333333333 0.05325333333333333 0.04666666666666667 0.10238666666666665 0.08399999999999999 0.14458666666666664 0.0372 0.042199999999999994 0.0824 0.07664 0.13293333333333332 0.10132 0.05053333333333333 0.02469333333333333 0.1056 0.03916 0.16173333333333334 0.042559999999999994 0.1112 0.0036799999999999997 0.21946666666666664 -0.03610666666666666 0.3017333333333333 -0.11094666666666667 0.08226666666666665 -0.07482666666666667 0.13226666666666664 -0.1788 0.13906666666666667 -0.2898266666666667 0.12093333333333334 -0.51628 0.15253333333333333 -1.04944 0.09359999999999999 -1.5763866666666666 -0.0588 -0.31042666666666663 -0.1968 -0.6003733333333333 -0.40079999999999993 -0.8416133333333333 -0.12026666666666666 -0.12023999999999999 -0.6946933333333334 -0.2671866666666667 -0.93516 -0.45421333333333336 0.027466666666666667 -0.09210666666666667 0.06323999999999999 -0.18153333333333332 0.10686666666666667 -0.2671866666666667 0.18702666666666667 -0.3473333333333333 0.40082666666666666 -0.66796 0.54776 -0.9484933333333332 0.05813333333333333 -0.07984 0.08226666666666665 -0.17942666666666665 0.0672 -0.27702666666666664 -0.014933333333333333 -0.09759999999999999 -0.06799999999999999 -0.18530666666666665 -0.14733333333333332 -0.24398666666666669 -0.038933333333333334 -0.030559999999999997 -0.08360000000000001 -0.05282666666666667 -0.13146666666666665 -0.06538666666666666 -0.04773333333333333 -0.012573333333333332 -0.09764 -0.015173333333333332 -0.1464933333333333 -0.007653333333333333 -0.04885333333333333 0.007506666666666666 -0.09564 0.024986666666666664 -0.13746666666666665 0.051346666666666665 -0.04181333333333333 0.026346666666666664 -0.07777333333333333 0.06102666666666666 -0.10562666666666666 0.10185333333333332 -0.2671866666666667 0.25382666666666664 -0.6546 0.54772 -0.9618666666666666 0.8549866666666667 -0.16126666666666667 0.1784933333333333 -0.30032 0.3758666666666666 -0.4141333333333333 0.5878 -0.06042666666666666 0.17364000000000002 -0.06591999999999999 0.36168 -0.015733333333333332 0.5385599999999999 0.0502 0.17686666666666664 0.15364 0.33399999999999996 0.29628 0.45001333333333327 0.17306666666666665 0.15821333333333332 0.36619999999999997 0.2929733333333333 0.57444 0.4007733333333333Z" stroke-width="1"></path><path fill="#ffffff" d="M17.742266666666666 8.145893333333333c0.7805333333333333 -0.2690666666666667 1.5252 -0.6324533333333333 2.2176 -1.08208 0.2168 -0.15139999999999998 0.3957333333333333 -0.35062666666666664 0.5232 -0.5822799999999999 0.12746666666666667 -0.23165333333333332 0.19986666666666666 -0.48952 0.2116 -0.75364 -0.025333333333333333 -0.22878666666666664 -0.09333333333333334 -0.45081333333333334 -0.20039999999999997 -0.6545866666666667l2.2176 -1.1221733333333332c0.09546666666666666 -0.02513333333333333 0.17719999999999997 -0.08698666666666667 0.22719999999999999 -0.17206666666666665 0.049999999999999996 -0.08508 0.0644 -0.18649333333333332 0.039999999999999994 -0.28214666666666666 -0.028 -0.09646666666666666 -0.09253333333333333 -0.17826666666666668 -0.17973333333333333 -0.22810666666666668 -0.0872 -0.04985333333333333 -0.1904 -0.06386666666666665 -0.28786666666666666 -0.039066666666666666l-2.471333333333333 0.5209999999999999c-0.24013333333333334 0.06249333333333333 -0.4765333333333333 0.13832 -0.7081333333333333 0.22710666666666668 -0.09893333333333333 0.05145333333333333 -0.18573333333333333 0.12330666666666668 -0.25479999999999997 0.21082666666666666 -0.06906666666666667 0.08750666666666665 -0.11879999999999999 0.18866666666666665 -0.146 0.2968133333333333 -0.0464 0.18868 -0.0464 0.3857733333333333 0 0.5744533333333333 0.05293333333333333 0.18273333333333333 0.12933333333333333 0.35785333333333336 0.22719999999999999 0.5209999999999999 0 0.08016 0.1336 0.14694666666666667 0.14693333333333333 0.22710666666666668 0.013333333333333332 0.08016 0 0.14694666666666667 -0.10693333333333332 0.22710666666666668 -0.14346666666666666 0.17223999999999998 -0.30466666666666664 0.32896 -0.4809333333333333 0.46756 -0.49426666666666663 0.37406666666666666 -1.0419999999999998 0.68132 -1.3358666666666665 0.8950666666666667 -0.049466666666666666 0.024146666666666667 -0.09373333333333334 0.05792 -0.13 0.09934666666666667 -0.03626666666666666 0.04142666666666667 -0.06386666666666665 0.08966666666666667 -0.08133333333333333 0.14192 -0.017466666666666665 0.052239999999999995 -0.024266666666666666 0.10744 -0.020133333333333333 0.16236 0.004266666666666667 0.05492 0.019333333333333334 0.10844 0.0444 0.15745333333333333 0.051199999999999996 0.09417333333333333 0.13599999999999998 0.16566666666666666 0.23746666666666666 0.20030666666666666 0.10146666666666666 0.03464 0.2121333333333333 0.029906666666666665 0.31026666666666664 -0.01328Z" stroke-width="1"></path></svg>